<?xml version="1.0" standalone="no"?><!DOCTYPE svg PUBLIC "-//W3C//DTD SVG 1.1//EN" "http://www.w3.org/Graphics/SVG/1.1/DTD/svg11.dtd"><svg t="1649947190181" class="icon" viewBox="0 0 1024 1024" version="1.1" xmlns="http://www.w3.org/2000/svg" p-id="30708" width="16" height="16" xmlns:xlink="http://www.w3.org/1999/xlink"><defs><style type="text/css">@font-face { font-family: feedback-iconfont; src: url("//at.alicdn.com/t/font_1031158_u69w8yhxdu.woff2?t=1630033759944") format("woff2"), url("//at.alicdn.com/t/font_1031158_u69w8yhxdu.woff?t=1630033759944") format("woff"), url("//at.alicdn.com/t/font_1031158_u69w8yhxdu.ttf?t=1630033759944") format("truetype"); }
</style></defs><path d="M932.244 262.558h-19.133v-95.666c0-31.57-23.103-68.956-51.335-83.067 0 0-101.731-50.866-350.465-50.866S160.857 83.825 160.857 83.825c-28.24 14.111-51.344 51.497-51.344 83.067v95.666H90.38c-31.57 0-57.399 25.829-57.399 57.399v57.399c0 31.57 25.829 57.399 57.399 57.399h19.133v392.233c0 24.863 16.043 46.092 38.267 54.022v32.077c0 42.094 34.439 76.533 76.533 76.533s76.533-34.441 76.533-76.533v-28.7h420.933v28.7c0 42.094 34.439 76.533 76.533 76.533s76.533-34.441 76.533-76.533V881.01c22.223-7.931 38.267-29.169 38.267-54.022V434.755h19.133c31.57 0 57.399-25.829 57.399-57.399v-57.399c0-31.569-25.829-57.399-57.399-57.399zM319.978 128.625c0-10.523 8.61-19.133 19.133-19.133H683.51c10.523 0 19.133 8.61 19.133 19.133v38.267c0 10.523-8.61 19.133-19.133 19.133H339.111c-10.523 0-19.133-8.61-19.133-19.133v-38.267z m-86.1 679.232c-26.423 0-47.833-21.429-47.833-47.833s21.41-47.833 47.833-47.833c26.414 0 47.833 21.429 47.833 47.833s-21.419 47.833-47.833 47.833z m554.867 0c-26.423 0-47.833-21.429-47.833-47.833s21.41-47.833 47.833-47.833 47.833 21.429 47.833 47.833-21.411 47.833-47.833 47.833z m47.832-220.032c0 10.523-8.61 19.133-19.133 19.133H205.179c-10.523 0-19.133-8.61-19.133-19.133V281.692c0-10.523 8.61-19.133 19.133-19.133h612.265c10.523 0 19.133 8.61 19.133 19.133v306.133z" p-id="30709" fill="#aa6600"></path></svg>