<?xml version="1.0" standalone="no"?><!DOCTYPE svg PUBLIC "-//W3C//DTD SVG 1.1//EN" "http://www.w3.org/Graphics/SVG/1.1/DTD/svg11.dtd"><svg t="1649944528825" class="icon" viewBox="0 0 1024 1024" version="1.1" xmlns="http://www.w3.org/2000/svg" p-id="3563" width="16" height="16" xmlns:xlink="http://www.w3.org/1999/xlink"><defs><style type="text/css">@font-face { font-family: feedback-iconfont; src: url("//at.alicdn.com/t/font_1031158_u69w8yhxdu.woff2?t=1630033759944") format("woff2"), url("//at.alicdn.com/t/font_1031158_u69w8yhxdu.woff?t=1630033759944") format("woff"), url("//at.alicdn.com/t/font_1031158_u69w8yhxdu.ttf?t=1630033759944") format("truetype"); }
</style></defs><path d="M998.4 537.6h-51.2a25.6 25.6 0 0 1 0-51.2h51.2a25.6 25.6 0 1 1 0 51.2z m-160.5632 336.4352l-36.1984-36.1984a25.6 25.6 0 1 1 36.1984-36.224l36.1984 36.224a25.5744 25.5744 0 1 1-36.1984 36.1984z m0-651.6736a25.6 25.6 0 0 1-36.1984-36.1984l36.1984-36.1984a25.5744 25.5744 0 1 1 36.1984 36.1984l-36.1984 36.1984zM512 870.4c-197.9392 0-358.4-160.4608-358.4-358.4S314.0608 153.6 512 153.6s358.4 160.4608 358.4 358.4-160.4608 358.4-358.4 358.4z m0-665.6C342.3488 204.8 204.8 342.3232 204.8 512c0 169.6512 137.5488 307.2 307.2 307.2s307.2-137.5488 307.2-307.2c0-169.6768-137.5488-307.2-307.2-307.2z m0-102.4a25.6 25.6 0 0 1-25.6-25.6V25.6a25.6 25.6 0 0 1 51.2 0v51.2a25.6 25.6 0 0 1-25.6 25.6zM186.1632 222.3616L149.9648 186.1632a25.5744 25.5744 0 1 1 36.1984-36.1984l36.1984 36.1984a25.5744 25.5744 0 1 1-36.1984 36.1984zM76.8 537.6H25.6a25.6 25.6 0 0 1 0-51.2h51.2a25.6 25.6 0 1 1 0 51.2z m109.3632 264.0128a25.6 25.6 0 0 1 36.1984 36.224l-36.1984 36.1984a25.6 25.6 0 0 1-36.1984-36.1984l36.1984-36.224zM512 921.6a25.6 25.6 0 0 1 25.6 25.6v51.2a25.6 25.6 0 0 1-51.2 0v-51.2a25.6 25.6 0 0 1 25.6-25.6z" p-id="3564" fill="#d81e06"></path></svg>