<?xml version="1.0" standalone="no"?><!DOCTYPE svg PUBLIC "-//W3C//DTD SVG 1.1//EN" "http://www.w3.org/Graphics/SVG/1.1/DTD/svg11.dtd"><svg t="1649948123442" class="icon" viewBox="0 0 1024 1024" version="1.1" xmlns="http://www.w3.org/2000/svg" p-id="66386" width="20" height="30" xmlns:xlink="http://www.w3.org/1999/xlink"><defs><style type="text/css">@font-face { font-family: feedback-iconfont; src: url("//at.alicdn.com/t/font_1031158_u69w8yhxdu.woff2?t=1630033759944") format("woff2"), url("//at.alicdn.com/t/font_1031158_u69w8yhxdu.woff?t=1630033759944") format("woff"), url("//at.alicdn.com/t/font_1031158_u69w8yhxdu.ttf?t=1630033759944") format("truetype"); }
</style></defs><path d="M960 160h-128v192h128v64h-128v192h128v64h-128v192h128v64h-128v64h-64v-64H256v64H192v-64H64v-64h128v-192H64v-64h128v-192H64v-64h128v-192H64v-64h128v-64h64v64h512v-64h64v64h128v64z m-704 704h512v-192H256v192z m512-256v-192H256v192h512z m0-256v-192H256v192h512z" p-id="66387" fill="#96c7d8"></path></svg>