<?xml version="1.0" standalone="no"?><!DOCTYPE svg PUBLIC "-//W3C//DTD SVG 1.1//EN" "http://www.w3.org/Graphics/SVG/1.1/DTD/svg11.dtd"><svg t="1649934735354" class="icon" viewBox="0 0 1024 1024" version="1.1" xmlns="http://www.w3.org/2000/svg" p-id="14922" width="32" height="32" xmlns:xlink="http://www.w3.org/1999/xlink"><defs><style type="text/css">@font-face { font-family: feedback-iconfont; src: url("//at.alicdn.com/t/font_1031158_u69w8yhxdu.woff2?t=1630033759944") format("woff2"), url("//at.alicdn.com/t/font_1031158_u69w8yhxdu.woff?t=1630033759944") format("woff"), url("//at.alicdn.com/t/font_1031158_u69w8yhxdu.ttf?t=1630033759944") format("truetype"); }
</style></defs><path d="M397.1 237.8h230.6v-38.2H397.1v38.2m-20.7-79.5h271.9c11.4 0 20.7 9.3 20.7 20.7v58.9h291.5v166.7c0 41.6-34 75.6-75.6 75.6h-64.2v-19.5c0-9.1-7.5-16.6-16.6-16.6h-77.3c-9.1 0-16.6 7.5-16.6 16.6v19.5H314.5v-19.5c0-9.1-7.5-16.6-16.6-16.6h-77.3c-9.1 0-16.6 7.5-16.6 16.6v19.5h-64.2c-41.6 0-75.6-34-75.6-75.6V237.8h291.5v-58.9c0-11.4 9.3-20.6 20.7-20.6z m584.1 314.4v392.7H64.2V472.7c14.3 19.2 37.2 31.8 62.8 31.8h77V566c0 9.1 7.5 16.6 16.6 16.6h77.3c9.1 0 16.6-7.5 16.6-16.6v-61.6h395.7V566c0 9.1 7.5 16.6 16.6 16.6h77.3c9.1 0 16.6-7.5 16.6-16.6v-61.6h77c25.6 0 48.5-12.5 62.8-31.7z" p-id="14923" fill="#1296db"></path></svg>