<?xml version="1.0" standalone="no"?><!DOCTYPE svg PUBLIC "-//W3C//DTD SVG 1.1//EN" "http://www.w3.org/Graphics/SVG/1.1/DTD/svg11.dtd"><svg t="1649937169777" class="icon" viewBox="0 0 1024 1024" version="1.1" xmlns="http://www.w3.org/2000/svg" p-id="19839" width="20" height="20s" xmlns:xlink="http://www.w3.org/1999/xlink"><defs><style type="text/css">@font-face { font-family: feedback-iconfont; src: url("//at.alicdn.com/t/font_1031158_u69w8yhxdu.woff2?t=1630033759944") format("woff2"), url("//at.alicdn.com/t/font_1031158_u69w8yhxdu.woff?t=1630033759944") format("woff"), url("//at.alicdn.com/t/font_1031158_u69w8yhxdu.ttf?t=1630033759944") format("truetype"); }
</style></defs><path d="M910.222222 960c0 35.271111-27.477333 64-61.269333 64H175.047111C141.255111 1024 113.777778 995.271111 113.777778 960V64C113.777778 28.728889 141.255111 0 175.047111 0h367.559111c14.108444 0 30.151111 4.437333 44.885334 11.150222l6.257777-2.901333 153.144889 143.985778 130.446222 122.595555 22.755556 21.390222-2.730667 7.338667c7.793778 15.473778 12.856889 32.768 12.856889 48.469333v607.971556zM625.777778 113.777778v170.666666h170.666666L625.777778 113.777778z m227.555555 227.555555H568.888889V56.888889H170.666667v910.222222h682.666666V341.333333zM455.111111 284.444444H284.444444V227.555556h170.666667v56.888888z m284.444445 284.444445H284.444444V512h455.111112v56.888889z m0 227.555555H284.444444v-56.888888h455.111112v56.888888z" p-id="19840" fill="#707070"></path></svg>